<svg width="13" height="12" viewBox="0 0 13 12" fill="none" xmlns="http://www.w3.org/2000/svg">
<path d="M5.99652 10.6574L5.99558 10.6566C4.30882 9.11774 2.96137 7.88679 2.02779 6.73847C1.10179 5.59947 0.65 4.62047 0.65 3.59673C0.65 1.93783 1.93569 0.65 3.575 0.65C4.50771 0.65 5.41419 1.09002 6.00386 1.7867L6.5 2.37286L6.99614 1.7867C7.58581 1.09002 8.49229 0.65 9.425 0.65C11.0643 0.65 12.35 1.93783 12.35 3.59673C12.35 4.62048 11.8982 5.5995 10.9721 6.73945C10.0385 7.88858 8.69123 9.12094 7.00468 10.6629C7.00442 10.6631 7.00416 10.6634 7.00391 10.6636L6.50167 11.1201L5.99652 10.6574Z" fill="#4F28A5" stroke="#4F28A5" stroke-width="1.3"/>
</svg>
